<svg xmlns="http://www.w3.org/2000/svg" width="56.746" height="56.744" viewBox="0 0 56.746 56.744">
  <path id="Icon_awesome-git-alt" data-name="Icon awesome-git-alt" d="M55.675,28.1,30.906,3.32a3.657,3.657,0,0,0-5.169,0l-5.15,5.146,6.526,6.526a4.342,4.342,0,0,1,5.5,5.533l6.29,6.29a4.347,4.347,0,1,1-2.6,2.451L30.427,23.4V38.837a4.345,4.345,0,1,1-3.574-.127V23.13a4.345,4.345,0,0,1-2.361-5.7L18.058,10.99,1.07,27.98a3.656,3.656,0,0,0,0,5.169L25.847,57.925a3.656,3.656,0,0,0,5.168,0l24.66-24.66a3.656,3.656,0,0,0,0-5.169Z" transform="translate(0 -2.25)" fill="#f05033"/>
</svg>
