<svg xmlns="http://www.w3.org/2000/svg" width="52" height="52" viewBox="0 0 52 52">
  <g id="Group_37" data-name="Group 37" transform="translate(-4881 -2469)">
    <rect id="Rectangle_58" data-name="Rectangle 58" width="52" height="52" transform="translate(4881 2469)" fill="#001b26"/>
    <path id="Icon_simple-adobephotoshop" data-name="Icon simple-adobephotoshop" d="M0,.45v52H52V.45ZM2.167,2.672H49.833V50.228H2.167Zm10.4,9.956c0-.149.3-.258.485-.258,1.4-.073,3.441-.111,5.586-.111,6.006,0,8.342,3.378,8.342,7.7,0,5.644-3.991,8.067-8.888,8.067-.823,0-1.105-.038-1.679-.038v8.538c0,.184-.072.258-.249.258H12.818c-.18,0-.249-.067-.249-.251V12.628Zm3.846,11.8c.5.036.893.036,1.755.036,2.535,0,4.918-.916,4.918-4.436,0-2.822-1.7-4.253-4.6-4.253-.858,0-1.679.036-2.073.073v8.587Zm18.648-2.64c-1.716,0-2.288.88-2.288,1.613,0,.807.39,1.356,2.68,2.567,3.4,1.689,4.468,3.3,4.468,5.682,0,3.556-2.643,5.467-6.218,5.467a9.269,9.269,0,0,1-4.442-.956c-.141-.073-.173-.182-.173-.367v-3.26c0-.222.1-.3.247-.187a7.837,7.837,0,0,0,4.359,1.32c1.716,0,2.431-.733,2.431-1.724,0-.807-.5-1.5-2.68-2.678-3.077-1.511-4.364-3.044-4.364-5.616,0-2.86,2.18-5.244,5.969-5.244a9.873,9.873,0,0,1,3.887.622.489.489,0,0,1,.217.44v3.044c0,.184-.108.3-.325.222a7.606,7.606,0,0,0-3.777-.956Z" transform="translate(4881 2468.55)" fill="#02c6fb"/>
  </g>
</svg>
