<svg xmlns="http://www.w3.org/2000/svg" width="54" height="52" viewBox="0 0 54 52">
  <g id="Group_35" data-name="Group 35" transform="translate(-4662 -2474)">
    <rect id="Rectangle_49" data-name="Rectangle 49" width="54" height="52" rx="9" transform="translate(4662 2474)" fill="#2a0019"/>
    <path id="Icon_simple-adobexd" data-name="Icon simple-adobexd" d="M44.438.45H9.563A9.5,9.5,0,0,0,0,9.894V43.006A9.5,9.5,0,0,0,9.563,52.45H44.438A9.5,9.5,0,0,0,54,43.006V9.894A9.5,9.5,0,0,0,44.438.45Zm7.29,41.689a8,8,0,0,1-2.372,5.715,8.2,8.2,0,0,1-5.773,2.374H10.418A8.131,8.131,0,0,1,2.25,42.161V10.739a8.131,8.131,0,0,1,8.168-8.067H43.56a8.118,8.118,0,0,1,8.168,8.067ZM21.353,24.783l6.3,11.956c.113.178.045.356-.135.356H23.6a.442.442,0,0,1-.472-.289c-1.44-2.933-2.9-5.867-4.41-9.022h-.045c-1.35,2.978-2.835,6.111-4.275,9.044a.433.433,0,0,1-.405.244H10.283c-.225,0-.248-.178-.135-.311l6.165-11.6L10.35,13.428a.179.179,0,0,1,.135-.311h3.87c.225,0,.315.044.405.244,1.417,2.933,2.858,5.956,4.208,8.911h.045c1.305-2.933,2.745-5.978,4.14-8.889.112-.178.18-.289.405-.289H27.18c.18,0,.248.133.135.311Zm7.4,3.622c0-5.178,3.487-9.222,9.022-9.222a10.1,10.1,0,0,1,1.17.044V13.339a.224.224,0,0,1,.225-.222h3.555c.18,0,.225.067.225.178v20.4a15.634,15.634,0,0,0,.113,2.178c0,.133-.045.178-.18.244a13.542,13.542,0,0,1-5.76,1.289C32.243,37.428,28.755,34.45,28.755,28.406Zm10.193-5.689a3.441,3.441,0,0,0-1.305-.222c-2.835,0-4.815,2.156-4.815,5.733,0,4.089,2.025,5.733,4.567,5.733a4.293,4.293,0,0,0,1.553-.244v-11Z" transform="translate(4662 2473.55)" fill="#ffdaf2"/>
    <g id="Rectangle_50" data-name="Rectangle 50" transform="translate(4662 2474)" fill="none" stroke="#ff22bf" stroke-width="3">
      <rect width="54" height="52" rx="9" stroke="none"/>
      <rect x="1.5" y="1.5" width="51" height="49" rx="7.5" fill="none"/>
    </g>
  </g>
</svg>
